<svg width="1080" height="1080" xmlns="http://www.w3.org/2000/svg" xml:space="preserve" version="1.1">
 <desc>Created with Fabric.js 5.2.4</desc>

 <g>
  <title>Layer 1</title>
  <g id="e21285e6-0657-4d92-a610-f87604ddc9e3" transform="matrix(1 0 0 1 540 540)"/>
  <g id="svg_2" transform="matrix(-8.47015, 0, 0, 8.11749, 988.094, 608.08)">
   <g id="svg_3" vector-effect="non-scaling-stroke">
    <g id="svg_4" transform="matrix(1, 0, 0, 1, 3.12, 0)">
     <path id="svg_5" fill-rule=" nonzero" fill="#91b0ff" stroke-miterlimit="4" stroke-linejoin=" miter" stroke-dashoffset="0" stroke-dasharray=" none" stroke=" none" stroke-linecap=" butt" d="m75.52811,7.40583c0.0292,1.085 -0.37909,2.13617 -1.133,2.917c-0.75343,0.77739 -1.78942,1.21674 -2.872,1.218c-1.08291,0.00035 -2.1195,-0.43926 -2.872,-1.218c-0.75537,-0.7799 -1.1639,-1.83171 -1.133,-2.917c0.009,-0.698 0.2,-1.382 0.557,-1.981c0.356,-0.6 0.863,-1.094 1.47,-1.433c-0.024,0.109 0.09,-0.055 0,0l1.86,-1.652c1.47442,-1.56922 2.29793,-3.63979 2.304,-5.793c0,-2.926 -1.711,-5.901 -4.17,-7.457c0.094,0.055 -0.036,-0.094 0,0c-0.60731,-0.33998 -1.11406,-0.83431 -1.469,-1.433c-0.35617,-0.5997 -0.54826,-1.28256 -0.557,-1.98c-0.02958,-1.08536 0.37874,-2.13699 1.133,-2.918c0.75319,-0.77714 1.78876,-1.21647 2.871,-1.218c1.08296,-0.00058 2.11963,0.43907 2.872,1.218c0.75566,0.77971 1.16424,1.83165 1.133,2.917c0.01041,2.17208 0.84994,4.2582 2.347,5.832l0.817,0.8c0.326,0.285 0.668,0.551 1.024,0.798c0.621,0.33 1.142,0.826 1.504,1.431c0.54763,0.91527 0.69672,2.01481 0.4126,3.04286c-0.28412,1.02805 -0.97669,1.89498 -1.9166,2.39914c0.033,-0.067 -0.063,0.036 0,0c-1.25616,0.79406 -2.2953,1.88783 -3.024,3.183c-0.7305,1.29735 -1.12834,2.75542 -1.158,4.244zm4.483,-21.742c0,0.796 0.235,1.575 0.676,2.237c0.43944,0.66107 1.06519,1.17685 1.798,1.482c1.49749,0.62355 3.22343,0.27844 4.366,-0.873c1.14554,-1.1541 1.48795,-2.8823 0.869,-4.386c-0.30271,-0.73464 -0.81633,-1.3631 -1.476,-1.806c-1.58844,-1.06576 -3.7095,-0.85567 -5.058,0.501c-0.75193,0.756 -1.17432,1.77873 -1.175,2.845zm4.007,17.717c-0.792,0 -1.567,0.236 -2.226,0.678c-0.65963,0.44295 -1.17324,1.07139 -1.476,1.806c-0.6194,1.50398 -0.27696,3.23271 0.869,4.387c1.14257,1.15144 2.86851,1.49655 4.366,0.873c0.73344,-0.30552 1.35959,-0.82203 1.799,-1.484c1.0612,-1.59782 0.85224,-3.72163 -0.5,-5.082c-0.74964,-0.75411 -1.76868,-1.17872 -2.832,-1.18l0,0.002zm10.252,-6.846c0,-0.796 -0.235,-1.574 -0.675,-2.236c-0.43929,-0.66144 -1.06506,-1.17758 -1.798,-1.483c-1.49777,-0.624 -3.22424,-0.27886 -4.367,0.873c-1.14596,1.15429 -1.4884,2.88302 -0.869,4.387c0.30271,0.73464 0.81633,1.3631 1.476,1.806c0.65823,0.44199 1.43314,0.67801 2.226,0.678c1.06325,-0.00162 2.08217,-0.42617 2.832,-1.18c0.75199,-0.75637 1.17437,-1.77942 1.175,-2.846l0,0.001z" vector-effect="non-scaling-stroke"/>
    </g>
    <g id="svg_6" transform="matrix(1, 0, 0, 1, -12.49, -0.01)">
     <path id="svg_7" fill-rule=" nonzero" fill="#83a5fc" stroke-miterlimit="4" stroke-linejoin=" miter" stroke-dashoffset="0" stroke-dasharray=" none" stroke=" none" stroke-linecap=" butt" d="m80.88711,-7.48017c-0.793,0 -1.567,0.236 -2.226,0.678c-0.65978,0.44322 -1.17341,1.07203 -1.476,1.807c-0.61895,1.5037 -0.27654,3.2319 0.869,4.386c1.14405,1.14868 2.8682,1.49343 4.366,0.873c0.73291,-0.30547 1.35867,-0.8216 1.798,-1.483c1.06049,-1.5973 0.85155,-3.72011 -0.5,-5.08c-0.74948,-0.75386 -1.76798,-1.17874 -2.831,-1.181z" vector-effect="non-scaling-stroke"/>
    </g>
   </g>
  </g>
  <text transform="matrix(5.14577, 0, 0, 6.63674, -2591.42, -3242.45)" xml:space="preserve" text-anchor="start" font-family="'Signika'" font-size="24" id="svg_8" y="583.86562" x="593.79477" stroke-width="0" stroke="#000" fill="#ffffff">&lt;{MH}/&gt;</text>
 </g>
</svg>